<mxfile host="app.diagrams.net" modified="2024-02-19T12:06:34.755Z" agent="Mozilla/5.0 (Windows NT 10.0; Win64; x64) AppleWebKit/537.36 (KHTML, like Gecko) Chrome/121.0.0.0 Safari/537.36" etag="rlWcMgGIVXRL3JIGf2JU" version="23.1.3" type="device">
  <diagram name="1 oldal" id="6X8PHvXPuyPjFrof4lg8">
    <mxGraphModel dx="4666" dy="743" grid="1" gridSize="10" guides="1" tooltips="1" connect="1" arrows="1" fold="1" page="1" pageScale="1" pageWidth="3300" pageHeight="4681" background="#ffffff" math="0" shadow="0">
      <root>
        <mxCell id="0" />
        <mxCell id="1" parent="0" />
        <mxCell id="sIG_Id1PkrePD84zRIbU-4" value="vásárlás" style="rhombus;whiteSpace=wrap;html=1;fillColor=#f8cecc;strokeColor=#b85450;gradientColor=#ea6b66;" parent="1" vertex="1">
          <mxGeometry x="459" y="250" width="150" height="90" as="geometry" />
        </mxCell>
        <mxCell id="sIG_Id1PkrePD84zRIbU-5" value="autó" style="rounded=0;whiteSpace=wrap;html=1;fillColor=#b1ddf0;strokeColor=#10739e;" parent="1" vertex="1">
          <mxGeometry x="170" y="265" width="160" height="60" as="geometry" />
        </mxCell>
        <mxCell id="sIG_Id1PkrePD84zRIbU-6" value="eladó" style="rounded=0;whiteSpace=wrap;html=1;fillColor=#b1ddf0;strokeColor=#10739e;" parent="1" vertex="1">
          <mxGeometry x="750" y="265" width="156" height="60" as="geometry" />
        </mxCell>
        <mxCell id="sIG_Id1PkrePD84zRIbU-7" value="" style="endArrow=none;html=1;rounded=0;exitX=1;exitY=0.5;exitDx=0;exitDy=0;entryX=0;entryY=0.5;entryDx=0;entryDy=0;" parent="1" source="sIG_Id1PkrePD84zRIbU-5" target="sIG_Id1PkrePD84zRIbU-4" edge="1">
          <mxGeometry width="50" height="50" relative="1" as="geometry">
            <mxPoint x="490" y="430" as="sourcePoint" />
            <mxPoint x="540" y="380" as="targetPoint" />
          </mxGeometry>
        </mxCell>
        <mxCell id="sIG_Id1PkrePD84zRIbU-8" value="" style="endArrow=none;html=1;rounded=0;exitX=1;exitY=0.5;exitDx=0;exitDy=0;entryX=0;entryY=0.5;entryDx=0;entryDy=0;" parent="1" source="sIG_Id1PkrePD84zRIbU-4" target="sIG_Id1PkrePD84zRIbU-6" edge="1">
          <mxGeometry width="50" height="50" relative="1" as="geometry">
            <mxPoint x="520" y="430" as="sourcePoint" />
            <mxPoint x="570" y="380" as="targetPoint" />
          </mxGeometry>
        </mxCell>
        <mxCell id="sIG_Id1PkrePD84zRIbU-13" value="gyártásiév" style="ellipse;whiteSpace=wrap;html=1;fillColor=#f5f5f5;strokeColor=#666666;fontColor=#333333;" parent="1" vertex="1">
          <mxGeometry x="50" y="200" width="100" height="50" as="geometry" />
        </mxCell>
        <mxCell id="sIG_Id1PkrePD84zRIbU-14" value="rendszam" style="ellipse;whiteSpace=wrap;html=1;fillColor=#f5f5f5;fontColor=#333333;strokeColor=#666666;" parent="1" vertex="1">
          <mxGeometry x="30" y="325" width="100" height="50" as="geometry" />
        </mxCell>
        <mxCell id="sIG_Id1PkrePD84zRIbU-15" value="" style="endArrow=none;html=1;rounded=0;exitX=0;exitY=0;exitDx=0;exitDy=0;entryX=1;entryY=1;entryDx=0;entryDy=0;" parent="1" source="sIG_Id1PkrePD84zRIbU-5" target="sIG_Id1PkrePD84zRIbU-13" edge="1">
          <mxGeometry width="50" height="50" relative="1" as="geometry">
            <mxPoint x="470" y="430" as="sourcePoint" />
            <mxPoint x="520" y="380" as="targetPoint" />
          </mxGeometry>
        </mxCell>
        <mxCell id="sIG_Id1PkrePD84zRIbU-17" value="" style="endArrow=none;html=1;rounded=0;exitX=0;exitY=1;exitDx=0;exitDy=0;entryX=0.988;entryY=0.34;entryDx=0;entryDy=0;entryPerimeter=0;" parent="1" source="sIG_Id1PkrePD84zRIbU-5" target="sIG_Id1PkrePD84zRIbU-14" edge="1">
          <mxGeometry width="50" height="50" relative="1" as="geometry">
            <mxPoint x="470" y="430" as="sourcePoint" />
            <mxPoint x="127" y="351" as="targetPoint" />
          </mxGeometry>
        </mxCell>
        <mxCell id="sIG_Id1PkrePD84zRIbU-18" value="ár" style="ellipse;whiteSpace=wrap;html=1;fillColor=#f5f5f5;strokeColor=#666666;fontColor=#333333;" parent="1" vertex="1">
          <mxGeometry x="150" y="360" width="100" height="50" as="geometry" />
        </mxCell>
        <mxCell id="sIG_Id1PkrePD84zRIbU-19" value="" style="endArrow=none;html=1;rounded=0;exitX=0.5;exitY=0;exitDx=0;exitDy=0;entryX=0.206;entryY=1.006;entryDx=0;entryDy=0;entryPerimeter=0;" parent="1" source="sIG_Id1PkrePD84zRIbU-18" target="sIG_Id1PkrePD84zRIbU-5" edge="1">
          <mxGeometry width="50" height="50" relative="1" as="geometry">
            <mxPoint x="470" y="430" as="sourcePoint" />
            <mxPoint x="520" y="380" as="targetPoint" />
          </mxGeometry>
        </mxCell>
        <mxCell id="sIG_Id1PkrePD84zRIbU-21" value="márka" style="ellipse;whiteSpace=wrap;html=1;fillColor=#f5f5f5;strokeColor=#666666;fontColor=#333333;" parent="1" vertex="1">
          <mxGeometry x="20" y="265" width="100" height="50" as="geometry" />
        </mxCell>
        <mxCell id="sIG_Id1PkrePD84zRIbU-22" value="" style="endArrow=none;html=1;rounded=0;exitX=1;exitY=0.5;exitDx=0;exitDy=0;entryX=0;entryY=0.5;entryDx=0;entryDy=0;" parent="1" source="sIG_Id1PkrePD84zRIbU-21" target="sIG_Id1PkrePD84zRIbU-5" edge="1">
          <mxGeometry width="50" height="50" relative="1" as="geometry">
            <mxPoint x="470" y="430" as="sourcePoint" />
            <mxPoint x="520" y="380" as="targetPoint" />
          </mxGeometry>
        </mxCell>
        <mxCell id="sIG_Id1PkrePD84zRIbU-23" value="típus" style="ellipse;whiteSpace=wrap;html=1;fillColor=#f5f5f5;strokeColor=#666666;fontColor=#333333;" parent="1" vertex="1">
          <mxGeometry x="160" y="180" width="100" height="50" as="geometry" />
        </mxCell>
        <mxCell id="sIG_Id1PkrePD84zRIbU-24" value="" style="endArrow=none;html=1;rounded=0;exitX=0.588;exitY=1.057;exitDx=0;exitDy=0;exitPerimeter=0;entryX=0.368;entryY=0.006;entryDx=0;entryDy=0;entryPerimeter=0;" parent="1" source="sIG_Id1PkrePD84zRIbU-23" target="sIG_Id1PkrePD84zRIbU-5" edge="1">
          <mxGeometry width="50" height="50" relative="1" as="geometry">
            <mxPoint x="470" y="430" as="sourcePoint" />
            <mxPoint x="520" y="380" as="targetPoint" />
          </mxGeometry>
        </mxCell>
        <mxCell id="sIG_Id1PkrePD84zRIbU-26" value="telefonszám" style="ellipse;whiteSpace=wrap;html=1;fillColor=#e3c800;fontColor=#000000;strokeColor=#B09500;" parent="1" vertex="1">
          <mxGeometry x="906" y="190" width="100" height="50" as="geometry" />
        </mxCell>
        <mxCell id="sIG_Id1PkrePD84zRIbU-27" value="" style="endArrow=none;html=1;rounded=0;entryX=0.869;entryY=-0.008;entryDx=0;entryDy=0;entryPerimeter=0;" parent="1" source="sIG_Id1PkrePD84zRIbU-26" target="sIG_Id1PkrePD84zRIbU-6" edge="1">
          <mxGeometry width="50" height="50" relative="1" as="geometry">
            <mxPoint x="490" y="430" as="sourcePoint" />
            <mxPoint x="540" y="380" as="targetPoint" />
          </mxGeometry>
        </mxCell>
        <mxCell id="sIG_Id1PkrePD84zRIbU-28" value="név" style="ellipse;whiteSpace=wrap;html=1;fillColor=#f5f5f5;strokeColor=#666666;fontColor=#333333;" parent="1" vertex="1">
          <mxGeometry x="930" y="250" width="100" height="50" as="geometry" />
        </mxCell>
        <mxCell id="sIG_Id1PkrePD84zRIbU-29" value="" style="endArrow=none;html=1;rounded=0;exitX=0.022;exitY=0.323;exitDx=0;exitDy=0;exitPerimeter=0;entryX=1.002;entryY=0.158;entryDx=0;entryDy=0;entryPerimeter=0;" parent="1" source="sIG_Id1PkrePD84zRIbU-28" target="sIG_Id1PkrePD84zRIbU-6" edge="1">
          <mxGeometry width="50" height="50" relative="1" as="geometry">
            <mxPoint x="937" y="245" as="sourcePoint" />
            <mxPoint x="910" y="270" as="targetPoint" />
          </mxGeometry>
        </mxCell>
        <mxCell id="sIG_Id1PkrePD84zRIbU-30" value="email" style="ellipse;whiteSpace=wrap;html=1;fillColor=#f5f5f5;strokeColor=#666666;fontColor=#333333;" parent="1" vertex="1">
          <mxGeometry x="940" y="310" width="100" height="50" as="geometry" />
        </mxCell>
        <mxCell id="sIG_Id1PkrePD84zRIbU-31" value="" style="endArrow=none;html=1;rounded=0;exitX=0;exitY=0.5;exitDx=0;exitDy=0;entryX=1;entryY=0.75;entryDx=0;entryDy=0;" parent="1" source="sIG_Id1PkrePD84zRIbU-30" target="sIG_Id1PkrePD84zRIbU-6" edge="1">
          <mxGeometry width="50" height="50" relative="1" as="geometry">
            <mxPoint x="490" y="430" as="sourcePoint" />
            <mxPoint x="540" y="380" as="targetPoint" />
          </mxGeometry>
        </mxCell>
        <mxCell id="sIG_Id1PkrePD84zRIbU-32" value="hely" style="ellipse;whiteSpace=wrap;html=1;fillColor=#f5f5f5;strokeColor=#666666;fontColor=#333333;" parent="1" vertex="1">
          <mxGeometry x="847" y="360" width="100" height="50" as="geometry" />
        </mxCell>
        <mxCell id="sIG_Id1PkrePD84zRIbU-33" value="" style="endArrow=none;html=1;rounded=0;exitX=0.5;exitY=0;exitDx=0;exitDy=0;entryX=0.794;entryY=1.033;entryDx=0;entryDy=0;entryPerimeter=0;" parent="1" source="sIG_Id1PkrePD84zRIbU-32" target="sIG_Id1PkrePD84zRIbU-6" edge="1">
          <mxGeometry width="50" height="50" relative="1" as="geometry">
            <mxPoint x="490" y="430" as="sourcePoint" />
            <mxPoint x="540" y="380" as="targetPoint" />
          </mxGeometry>
        </mxCell>
        <mxCell id="sIG_Id1PkrePD84zRIbU-41" value="" style="endArrow=none;html=1;rounded=0;exitX=0.5;exitY=1;exitDx=0;exitDy=0;" parent="1" source="sIG_Id1PkrePD84zRIbU-4" target="sIG_Id1PkrePD84zRIbU-42" edge="1">
          <mxGeometry width="50" height="50" relative="1" as="geometry">
            <mxPoint x="490" y="430" as="sourcePoint" />
            <mxPoint x="530" y="420" as="targetPoint" />
          </mxGeometry>
        </mxCell>
        <mxCell id="sIG_Id1PkrePD84zRIbU-42" value="vásárló" style="rounded=0;whiteSpace=wrap;html=1;fillColor=#b1ddf0;strokeColor=#10739e;" parent="1" vertex="1">
          <mxGeometry x="474" y="390" width="120" height="60" as="geometry" />
        </mxCell>
        <mxCell id="sIG_Id1PkrePD84zRIbU-46" value="telefonszám" style="ellipse;whiteSpace=wrap;html=1;fillColor=#e3c800;fontColor=#000000;strokeColor=#B09500;strokeWidth=1;" parent="1" vertex="1">
          <mxGeometry x="619" y="375" width="100" height="50" as="geometry" />
        </mxCell>
        <mxCell id="sIG_Id1PkrePD84zRIbU-47" value="név" style="ellipse;whiteSpace=wrap;html=1;fillColor=#f5f5f5;strokeColor=#666666;fontColor=#333333;" parent="1" vertex="1">
          <mxGeometry x="609" y="435" width="100" height="50" as="geometry" />
        </mxCell>
        <mxCell id="sIG_Id1PkrePD84zRIbU-48" value="email" style="ellipse;whiteSpace=wrap;html=1;fillColor=#f5f5f5;strokeColor=#666666;fontColor=#333333;" parent="1" vertex="1">
          <mxGeometry x="509" y="470" width="100" height="50" as="geometry" />
        </mxCell>
        <mxCell id="sIG_Id1PkrePD84zRIbU-49" value="lakhely" style="ellipse;whiteSpace=wrap;html=1;fillColor=#f5f5f5;strokeColor=#666666;fontColor=#333333;" parent="1" vertex="1">
          <mxGeometry x="400" y="470" width="100" height="50" as="geometry" />
        </mxCell>
        <mxCell id="sIG_Id1PkrePD84zRIbU-50" value="" style="endArrow=none;html=1;rounded=0;exitX=0;exitY=1;exitDx=0;exitDy=0;entryX=0.5;entryY=0;entryDx=0;entryDy=0;" parent="1" source="sIG_Id1PkrePD84zRIbU-42" target="sIG_Id1PkrePD84zRIbU-49" edge="1">
          <mxGeometry width="50" height="50" relative="1" as="geometry">
            <mxPoint x="490" y="430" as="sourcePoint" />
            <mxPoint x="540" y="380" as="targetPoint" />
          </mxGeometry>
        </mxCell>
        <mxCell id="sIG_Id1PkrePD84zRIbU-51" value="" style="endArrow=none;html=1;rounded=0;exitX=0.5;exitY=1;exitDx=0;exitDy=0;entryX=0.5;entryY=0;entryDx=0;entryDy=0;" parent="1" source="sIG_Id1PkrePD84zRIbU-42" target="sIG_Id1PkrePD84zRIbU-48" edge="1">
          <mxGeometry width="50" height="50" relative="1" as="geometry">
            <mxPoint x="490" y="430" as="sourcePoint" />
            <mxPoint x="540" y="380" as="targetPoint" />
          </mxGeometry>
        </mxCell>
        <mxCell id="sIG_Id1PkrePD84zRIbU-52" value="" style="endArrow=none;html=1;rounded=0;exitX=1;exitY=1;exitDx=0;exitDy=0;entryX=0.007;entryY=0.407;entryDx=0;entryDy=0;entryPerimeter=0;" parent="1" source="sIG_Id1PkrePD84zRIbU-42" target="sIG_Id1PkrePD84zRIbU-47" edge="1">
          <mxGeometry width="50" height="50" relative="1" as="geometry">
            <mxPoint x="490" y="430" as="sourcePoint" />
            <mxPoint x="540" y="380" as="targetPoint" />
          </mxGeometry>
        </mxCell>
        <mxCell id="sIG_Id1PkrePD84zRIbU-53" value="" style="endArrow=none;html=1;rounded=0;exitX=0;exitY=0.5;exitDx=0;exitDy=0;entryX=1;entryY=0;entryDx=0;entryDy=0;" parent="1" source="sIG_Id1PkrePD84zRIbU-46" target="sIG_Id1PkrePD84zRIbU-42" edge="1">
          <mxGeometry width="50" height="50" relative="1" as="geometry">
            <mxPoint x="490" y="430" as="sourcePoint" />
            <mxPoint x="540" y="380" as="targetPoint" />
          </mxGeometry>
        </mxCell>
        <mxCell id="sIG_Id1PkrePD84zRIbU-54" value="eladó autói" style="rhombus;whiteSpace=wrap;html=1;fillColor=#f8cecc;strokeColor=#b85450;gradientColor=#ea6b66;" parent="1" vertex="1">
          <mxGeometry x="454" y="100" width="159" height="100" as="geometry" />
        </mxCell>
        <mxCell id="sIG_Id1PkrePD84zRIbU-55" value="" style="endArrow=none;html=1;rounded=0;exitX=1;exitY=0;exitDx=0;exitDy=0;entryX=0;entryY=0.5;entryDx=0;entryDy=0;" parent="1" source="sIG_Id1PkrePD84zRIbU-5" target="sIG_Id1PkrePD84zRIbU-54" edge="1">
          <mxGeometry width="50" height="50" relative="1" as="geometry">
            <mxPoint x="490" y="340" as="sourcePoint" />
            <mxPoint x="540" y="290" as="targetPoint" />
          </mxGeometry>
        </mxCell>
        <mxCell id="sIG_Id1PkrePD84zRIbU-56" value="" style="endArrow=none;html=1;rounded=0;exitX=1;exitY=0.5;exitDx=0;exitDy=0;entryX=0;entryY=0;entryDx=0;entryDy=0;" parent="1" source="sIG_Id1PkrePD84zRIbU-54" target="sIG_Id1PkrePD84zRIbU-6" edge="1">
          <mxGeometry width="50" height="50" relative="1" as="geometry">
            <mxPoint x="490" y="340" as="sourcePoint" />
            <mxPoint x="540" y="290" as="targetPoint" />
          </mxGeometry>
        </mxCell>
        <mxCell id="UYZWUS7SUAO0R33CUumW-2" value="Object" style="html=1;whiteSpace=wrap;" vertex="1" parent="1">
          <mxGeometry x="-2440" y="310" width="250" height="160" as="geometry" />
        </mxCell>
        <mxCell id="UYZWUS7SUAO0R33CUumW-9" value="alvázszám" style="ellipse;whiteSpace=wrap;html=1;fillColor=#e3c800;strokeColor=#B09500;fontColor=#000000;" vertex="1" parent="1">
          <mxGeometry x="260" y="360" width="100" height="50" as="geometry" />
        </mxCell>
        <mxCell id="UYZWUS7SUAO0R33CUumW-10" value="" style="endArrow=none;html=1;rounded=0;exitX=0.5;exitY=0;exitDx=0;exitDy=0;entryX=0.37;entryY=1.01;entryDx=0;entryDy=0;entryPerimeter=0;" edge="1" parent="1" source="UYZWUS7SUAO0R33CUumW-9" target="sIG_Id1PkrePD84zRIbU-5">
          <mxGeometry width="50" height="50" relative="1" as="geometry">
            <mxPoint x="640" y="330" as="sourcePoint" />
            <mxPoint x="230" y="340" as="targetPoint" />
          </mxGeometry>
        </mxCell>
      </root>
    </mxGraphModel>
  </diagram>
</mxfile>
